<?xml version="1.0" encoding="iso-8859-1"?>
<!-- Generator: Adobe Illustrator 19.1.0, SVG Export Plug-In . SVG Version: 6.00 Build 0)  -->
<!DOCTYPE svg PUBLIC "-//W3C//DTD SVG 1.1//EN" "http://www.w3.org/Graphics/SVG/1.1/DTD/svg11.dtd">
<svg version="1.1" id="Layer_1" xmlns="http://www.w3.org/2000/svg" xmlns:xlink="http://www.w3.org/1999/xlink" x="0px" y="0px"
	 viewBox="0 0 627.675 201.634" style="enable-background:new 0 0 627.675 201.634;" xml:space="preserve">
<polygon style="fill:#5C8C87;" points="573.425,37.961 562.725,75.093 567.69,81.941 584.29,49.99 "/>
<polygon style="fill:#A67369;" points="562.201,74.66 548.58,98.098 551.866,100.005 569.514,78.908 "/>
<polygon style="fill:#A67369;" points="575.284,122.529 573,152.113 589.195,201.634 593.508,200.39 588.769,151.702 
	591.069,117.985 "/>
<polygon style="fill:#A67369;" points="556.148,126.373 547.898,152.287 552.023,200.816 556.148,200.816 562.11,155.984 
	571.239,126.373 "/>
<polygon style="fill:#1FD6C9;" points="538.125,140.365 609.738,140.365 586.656,66.651 586.656,66.639 585.802,35.342 
	574.476,32.544 558.444,92.726 "/>
<g>
	<defs>
		<rect id="SVGID_1_" x="0.001" y="0.001" width="627.674" height="201.633"/>
	</defs>
	<clipPath id="SVGID_2_">
		<use xlink:href="#SVGID_1_"  style="overflow:visible;"/>
	</clipPath>
	<path style="clip-path:url(#SVGID_2_);fill:#A67369;" d="M568.219,24.118c0,6.836,5.542,12.378,12.378,12.378
		c6.836,0,12.378-5.542,12.378-12.378c0-6.836-5.542-12.378-12.378-12.378C573.761,11.739,568.219,17.282,568.219,24.118"/>
</g>
<polygon style="fill:#38C757;" points="576.601,43.115 554.181,74.592 556.593,82.699 582.858,58.068 "/>
<polygon style="fill:#A67369;" points="554.18,74.591 528.198,82.32 529.281,85.963 556.592,82.698 "/>
<g>
	<defs>
		<rect id="SVGID_3_" x="0.001" y="0.001" width="627.674" height="201.633"/>
	</defs>
	<clipPath id="SVGID_4_">
		<use xlink:href="#SVGID_3_"  style="overflow:visible;"/>
	</clipPath>
	<path style="clip-path:url(#SVGID_4_);fill:#FF9CA8;" d="M570.941,11.531c0,6.369,5.162,11.531,11.531,11.531
		c6.367,0,11.531-5.162,11.531-11.531C594.003,5.162,588.839,0,582.472,0C576.103,0,570.941,5.162,570.941,11.531"/>
	<path style="clip-path:url(#SVGID_4_);fill:#FF9CA8;" d="M563.872,14.31c0,3.904,3.166,7.069,7.069,7.069
		c3.904,0,7.069-3.166,7.069-7.069c0-3.904-3.166-7.069-7.069-7.069C567.037,7.24,563.872,10.406,563.872,14.31"/>
	<path style="clip-path:url(#SVGID_4_);fill:#FF9CA8;" d="M585.077,18.866c0,4.755,3.854,8.611,8.611,8.611
		c4.755,0,8.609-3.856,8.609-8.611c0-4.755-3.854-8.611-8.609-8.611C588.931,10.255,585.077,14.111,585.077,18.866"/>
	<path style="clip-path:url(#SVGID_4_);fill:#FF9CA8;" d="M588.712,28.731c0,4.755,3.854,8.611,8.611,8.611
		c4.755,0,8.609-3.856,8.609-8.611c0-4.755-3.854-8.611-8.609-8.611C592.566,20.12,588.712,23.977,588.712,28.731"/>
	<path style="clip-path:url(#SVGID_4_);fill:#FF9CA8;" d="M585.077,37.342c0,3.904,3.166,7.069,7.069,7.069
		c3.904,0,7.069-3.166,7.069-7.069c0-3.904-3.166-7.069-7.069-7.069C588.243,30.272,585.077,33.438,585.077,37.342"/>
</g>
<rect x="581.991" y="95.844" style="fill:#FF9CA8;" width="45.684" height="14.517"/>
<polygon style="fill:#FCD900;" points="470.794,114.794 440.914,93.255 445.299,77.263 472.176,106.253 "/>
<polyline style="fill:#E8BAA6;" points="492.107,125.396 471.868,105.949 467.353,112.406 490.08,128.298 "/>
<polygon style="fill:#F05970;" points="441.671,153.67 425.844,201.162 432.595,201.633 459.03,151.583 449.21,117.986 
	427.059,116.438 "/>
<polygon style="fill:#F05970;" points="438.872,125.683 431.966,157.829 396.612,195.313 392.368,190.983 416.372,156.535 
	422.592,116.125 "/>
<polygon style="fill:#38C757;" points="439.79,69.64 419.668,123.017 454.741,134.23 453.961,70.475 "/>
<g>
	<defs>
		<rect id="SVGID_5_" x="0.001" y="0.001" width="627.674" height="201.633"/>
	</defs>
	<clipPath id="SVGID_6_">
		<use xlink:href="#SVGID_5_"  style="overflow:visible;"/>
	</clipPath>
	<path style="clip-path:url(#SVGID_6_);fill:#E8BAA6;" d="M462.453,66.349c-2.044,6.687-9.124,10.45-15.811,8.406
		c-6.687-2.046-10.45-9.123-8.406-15.811c2.046-6.687,9.124-10.452,15.811-8.406C460.734,52.584,464.499,59.662,462.453,66.349"/>
</g>
<polygon style="fill:#FCD900;" points="445.364,78.662 462.309,114.377 458.429,122.112 436.385,92.603 "/>
<polyline style="fill:#E8BAA6;" points="485.157,129.787 458.235,121.61 462.115,113.877 486.901,126.313 "/>
<g>
	<defs>
		<rect id="SVGID_7_" x="0.001" y="0.001" width="627.674" height="201.633"/>
	</defs>
	<clipPath id="SVGID_8_">
		<use xlink:href="#SVGID_7_"  style="overflow:visible;"/>
	</clipPath>
	<path style="clip-path:url(#SVGID_8_);fill:#1FD6C9;" d="M457.462,51.582c-0.862,2.823-3.85,4.41-6.673,3.546
		c-2.821-0.862-4.41-3.85-3.546-6.671c0.862-2.823,3.85-4.41,6.673-3.548C456.736,45.774,458.325,48.76,457.462,51.582"/>
	<path style="clip-path:url(#SVGID_8_);fill:#1FD6C9;" d="M449.327,52.63c-0.864,2.823-3.85,4.41-6.673,3.548
		c-2.823-0.864-4.41-3.852-3.546-6.673c0.862-2.823,3.85-4.41,6.671-3.548C448.601,46.821,450.188,49.807,449.327,52.63"/>
	<path style="clip-path:url(#SVGID_8_);fill:#1FD6C9;" d="M443.982,56.927c-0.864,2.823-3.85,4.41-6.673,3.548
		c-2.821-0.864-4.41-3.85-3.546-6.673c0.862-2.823,3.85-4.41,6.671-3.548C443.256,51.118,444.845,54.104,443.982,56.927"/>
	<path style="clip-path:url(#SVGID_8_);fill:#1FD6C9;" d="M464.139,54.038c-0.864,2.823-3.85,4.41-6.673,3.548
		c-2.821-0.864-4.41-3.852-3.546-6.673c0.862-2.823,3.85-4.41,6.671-3.548C463.414,48.229,465.003,51.217,464.139,54.038"/>
</g>
<rect x="403.094" y="90.265" style="fill:#FF9CA8;" width="26.432" height="26.432"/>
<polygon style="fill:#FF9CA8;" points="287.815,127.19 278.667,153.102 283.24,201.633 287.815,201.633 294.428,156.798 
	304.549,127.19 "/>
<polygon style="fill:#FF9CA8;" points="314.288,127.19 305.142,153.102 309.715,201.633 314.288,201.633 320.901,156.798 
	331.024,127.19 "/>
<polyline style="fill:#FCD900;" points="303.898,60.491 258.698,85.502 261.837,89.846 298.248,81.735 285.064,126.935 
	335.916,131.644 331.025,84.874 351.417,110.209 354,104.871 322.527,55.04 "/>
<g>
	<defs>
		<rect id="SVGID_9_" x="0.001" y="0.001" width="627.674" height="201.633"/>
	</defs>
	<clipPath id="SVGID_10_">
		<use xlink:href="#SVGID_9_"  style="overflow:visible;"/>
	</clipPath>
	<path style="clip-path:url(#SVGID_10_);fill:#E8BAA6;" d="M300.506,47.639c0,6.836,5.542,12.378,12.378,12.378
		c6.836,0,12.376-5.542,12.376-12.378c0-6.836-5.54-12.378-12.376-12.378C306.048,35.261,300.506,40.803,300.506,47.639"/>
	<path style="clip-path:url(#SVGID_10_);fill:#F05970;" d="M298.45,43.245h14.432l11.056,14.029c0,0,9.588-7.129,0-19.429
		C323.651,38.145,309.552,23.444,298.45,43.245"/>
	<path style="clip-path:url(#SVGID_10_);fill:#F05970;" d="M320.819,35.337c0,0,14.019-13.858,28.42,2.943c0,0.3,1.201,5.4,6.6,3.3
		c0.3-0.3,2.399-2.399,0-3.6c0,0.3,7.801,0.961,4.8,8.731C360.64,47.581,333.201,57.595,320.819,35.337"/>
</g>
<rect x="276.415" y="94.218" transform="matrix(0.7071 0.7071 -0.7071 0.7071 159.5935 -172.8342)" style="fill:#1FD6C9;" width="24.022" height="24.022"/>
<polygon style="fill:#17B8F0;" points="164.351,81.398 202.959,79.706 208.449,86.138 173.495,94.783 "/>
<polygon style="fill:#38C757;" points="159.096,148.898 153.114,200.39 160.962,201.634 176.645,149.076 174.531,117.87 
	157.026,113.328 "/>
<polygon style="fill:#17B8F0;" points="161.239,55.985 155.257,119.845 194.545,120.393 175.591,55.255 "/>
<polygon style="fill:#38C757;" points="177.808,120.279 187.932,152.313 190.75,200.818 199.117,200.818 203.691,148.313 
	194.544,120.279 "/>
<g>
	<defs>
		<rect id="SVGID_11_" x="0.001" y="0.001" width="627.674" height="201.633"/>
	</defs>
	<clipPath id="SVGID_12_">
		<use xlink:href="#SVGID_11_"  style="overflow:visible;"/>
	</clipPath>
	<path style="clip-path:url(#SVGID_12_);fill:#A67369;" d="M181.853,46.823c0,6.836-5.542,12.378-12.378,12.378
		s-12.376-5.542-12.376-12.378c0-6.836,5.54-12.378,12.376-12.378S181.853,39.987,181.853,46.823"/>
	<path style="clip-path:url(#SVGID_12_);fill:#F05970;" d="M181.853,33.589c0,0-2.837-5.319-12.378-5.515
		c-9.541-0.196-12.692,3.546-14.269,5.515c-1.575,1.969-1.575,25.612-1.575,25.612"/>
</g>
<polygon style="fill:#17B8F0;" points="169.475,59.201 199.939,82.978 199.939,91.436 167.741,75.317 "/>
<polygon style="fill:#A67369;" points="202.659,79.095 228.636,71.352 229.723,74.993 205.074,87.202 "/>
<polygon style="fill:#A67369;" points="199.939,82.978 227.048,82.978 227.048,86.778 199.939,91.436 "/>
<g>
	<defs>
		<rect id="SVGID_13_" x="0.001" y="0.001" width="627.674" height="201.633"/>
	</defs>
	<clipPath id="SVGID_14_">
		<use xlink:href="#SVGID_13_"  style="overflow:visible;"/>
	</clipPath>
	<path style="clip-path:url(#SVGID_14_);fill:#F05970;" d="M156.434,108.378c-11.874,0-21.566-9.334-22.134-21.066h10.425
		c0,6.466,5.241,11.713,11.709,11.713s11.713-5.247,11.713-11.713h10.421C178,99.043,168.306,108.378,156.434,108.378"/>
</g>
<polygon style="fill:#1FD6C9;" points="68.72,145.003 64.525,200.065 70.044,201.633 88.74,146.055 84.739,112.407 64.543,106.664 
	"/>
<polygon style="fill:#1FD6C9;" points="30.327,111.201 44.292,145.579 45.904,200.37 55.036,200.37 65.242,147.728 58.26,110.664 
	"/>
<polygon style="fill:#17B8F0;" points="82.35,74.59 81.289,82.129 77.797,80.635 73.342,77.576 51.547,62.501 55.52,46.773 
	61.854,53.324 82.06,74.301 "/>
<polygon style="fill:#E8BAA6;" points="105.325,88.799 103.494,91.713 81.29,82.128 77.797,80.634 81.843,74.156 82.06,74.301 "/>
<polygon style="fill:#38C757;" points="43.814,44.131 27.45,115.395 90.796,114.339 56.484,42.019 "/>
<g>
	<defs>
		<rect id="SVGID_15_" x="0.001" y="0.001" width="627.674" height="201.633"/>
	</defs>
	<clipPath id="SVGID_16_">
		<use xlink:href="#SVGID_15_"  style="overflow:visible;"/>
	</clipPath>
	<path style="clip-path:url(#SVGID_16_);fill:#E8BAA6;" d="M62.389,33.295c0,6.836-5.542,12.378-12.378,12.378
		s-12.376-5.542-12.376-12.378c0-6.836,5.54-12.378,12.376-12.378S62.389,26.459,62.389,33.295"/>
</g>
<polygon style="fill:#17B8F0;" points="52.355,58.066 74.774,89.542 72.363,97.649 46.098,73.021 "/>
<polygon style="fill:#E8BAA6;" points="74.775,89.542 100.757,97.27 99.674,100.912 72.364,97.649 "/>
<g>
	<defs>
		<rect id="SVGID_17_" x="0.001" y="0.001" width="627.674" height="201.633"/>
	</defs>
	<clipPath id="SVGID_18_">
		<use xlink:href="#SVGID_17_"  style="overflow:visible;"/>
	</clipPath>
	<path style="clip-path:url(#SVGID_18_);fill:#FCD900;" d="M63.989,29.026l-29.274,3.645c-1-8.088,4.726-15.453,12.814-16.46
		S62.974,20.939,63.989,29.026"/>
	<path style="clip-path:url(#SVGID_18_);fill:none;stroke:#FCD900;stroke-width:6.1994;stroke-miterlimit:10;" d="M36.344,96.579
		c0,0-8.619-11.882-17.007,0 M2.509,96.321c0,0,8.619,11.882,17.007,0 M36.133,96.321c0,0,8.619,11.882,17.007,0"/>
</g>
</svg>
