<?xml version="1.0" encoding="iso-8859-1"?>
<!-- Generator: Adobe Illustrator 19.1.0, SVG Export Plug-In . SVG Version: 6.00 Build 0)  -->
<!DOCTYPE svg PUBLIC "-//W3C//DTD SVG 1.1//EN" "http://www.w3.org/Graphics/SVG/1.1/DTD/svg11.dtd">
<svg version="1.1" id="Layer_1" xmlns="http://www.w3.org/2000/svg" xmlns:xlink="http://www.w3.org/1999/xlink" x="0px" y="0px"
	 viewBox="0 0 155.698 200.543" style="enable-background:new 0 0 155.698 200.543;" xml:space="preserve">
<g>
	<polyline style="fill:#EF596F;" points="94.949,39.505 0,136.41 132.198,152.274 	"/>
	<polygon style="fill:#1ED6C9;" points="133.083,118.764 143.132,147.229 138.108,200.543 133.083,200.543 125.819,151.291 
		114.698,118.764 	"/>
	<polygon style="fill:#1ED6C9;" points="104,118.764 114.049,147.229 109.025,200.543 104,200.543 96.736,151.291 85.615,118.764 	
		"/>
	<polyline style="fill:#18B8EF;" points="112.283,45.589 144.552,10.318 147.702,15.074 120.098,61.489 136.104,118.485 
		80.242,123.658 85.615,72.278 63.212,100.109 60.376,94.246 94.949,39.505 	"/>
	<circle style="fill:#A57468;" cx="105.544" cy="31.374" r="13.597"/>
	<path style="fill:#FF9CA8;" d="M120.801,33.378l-14.48-6.458l-17.37,9.129c0,0-6.429-11.443,8.695-19.494
		C97.799,16.984,118.524,8.544,120.801,33.378z"/>
	<path style="fill:#FF9CA8;" d="M96.827,17.86c0,0-15.401-15.223-31.221,3.233c0,0.33-1.318,5.932-7.251,3.625
		c-0.33-0.33-2.637-2.637,0-3.955c0,0.33-8.569,1.055-5.273,9.591C53.082,31.31,83.224,42.311,96.827,17.86z"/>
	<g>
		<path style="fill:#FCD900;" d="M127.871,101.001c-13.021,0-23.65-10.237-24.274-23.103h11.433c0,7.093,5.748,12.846,12.84,12.846
			c7.093,0,12.846-5.753,12.846-12.846h11.428C151.521,90.763,140.892,101.001,127.871,101.001z"/>
	</g>
	<polygon style="fill:#A57468;" points="140.768,14.512 153.554,0 155.698,1.889 145.542,18.719 	"/>
	<polygon style="fill:#A57468;" points="66.801,96.127 54.015,110.639 51.871,108.75 62.026,91.92 	"/>
	<circle style="fill:#38C656;" cx="70.957" cy="57.779" r="6.711"/>
	<circle style="fill:#EF596F;" cx="58.289" cy="52.639" r="2.385"/>
</g>
</svg>
